# Blender 3.5.1
# www.blender.org
mtllib Block.mtl
o Cube
v 1.000000 1.000000 -1.000000
v 1.000000 -1.000000 -1.000000
v 1.000000 1.000000 1.000000
v 1.000000 -1.000000 1.000000
v -1.000000 1.000000 -1.000000
v -1.000000 -1.000000 -1.000000
v -1.000000 1.000000 1.000000
v -1.000000 -1.000000 1.000000
v 1.000000 1.000000 -3.042372
v 1.000000 -1.000000 -3.042372
v -1.000000 1.000000 -3.042372
v -1.000000 -1.000000 -3.042372
v 1.000000 -3.000000 -1.000000
v 1.000000 -3.000000 1.000000
v -1.000000 -3.000000 -1.000000
v -1.000000 -3.000000 1.000000
v 1.000000 -3.000000 -3.042372
v -1.000000 -3.000000 -3.042372
v 1.000000 1.000000 -5.042373
v 1.000000 -1.000000 -5.042373
v -1.000000 1.000000 -5.042373
v -1.000000 -1.000000 -5.042373
v 1.000000 -3.000000 -5.042373
v -1.000000 -3.000000 -5.042373
v 1.000000 -5.000000 -1.000000
v 1.000000 -5.000000 1.000000
v -1.000000 -5.000000 -1.000000
v -1.000000 -5.000000 1.000000
v 1.000000 -5.000000 -3.042372
v -1.000000 -5.000000 -3.042372
v 1.000000 -5.000000 -5.042373
v -1.000000 -5.000000 -5.042373
vn -0.0000 1.0000 -0.0000
vn -0.0000 -0.0000 1.0000
vn -1.0000 -0.0000 -0.0000
vn 1.0000 -0.0000 -0.0000
vn -0.0000 -0.0000 -1.0000
vn -0.0000 -1.0000 -0.0000
vt 0.625000 0.500000
vt 0.375000 0.500000
vt 0.625000 0.750000
vt 0.375000 0.750000
vt 0.625000 0.250000
vt 0.875000 0.500000
vt 0.375000 0.250000
vt 0.875000 0.750000
vt 0.625000 1.000000
vt 0.625000 0.000000
vt 0.375000 1.000000
vt 0.375000 0.000000
vt 0.625000 0.500000
vt 0.375000 0.500000
vt 0.875000 0.500000
vt 0.625000 0.250000
vt 0.375000 0.250000
vt 0.375000 0.500000
vt 0.375000 0.750000
vt 0.375000 0.250000
vt 0.375000 1.000000
vt 0.375000 0.000000
vt 0.375000 0.500000
vt 0.375000 0.250000
vt 0.625000 0.500000
vt 0.375000 0.500000
vt 0.875000 0.500000
vt 0.625000 0.250000
vt 0.375000 0.250000
vt 0.375000 0.500000
vt 0.375000 0.250000
vt 0.375000 0.500000
vt 0.375000 0.750000
vt 0.125000 0.500000
vt 0.375000 0.250000
vt 0.125000 0.750000
vt 0.375000 1.000000
vt 0.375000 0.000000
vt 0.375000 0.500000
vt 0.375000 0.250000
vt 0.125000 0.500000
vt 0.375000 0.500000
vt 0.125000 0.500000
vt 0.375000 0.250000
s 0
usemtl Material
f 1/1/1 5/6/1 7/8/1 3/3/1
f 4/4/2 3/3/2 7/9/2 8/11/2
f 8/12/3 7/10/3 5/5/3 6/7/3
f 11/15/1 9/13/1 19/25/1 21/27/1
f 2/2/4 1/1/4 3/3/4 4/4/4
f 1/1/4 2/2/4 10/14/4 9/13/4
f 18/24/3 12/17/3 22/29/3 24/31/3
f 6/7/3 5/5/3 11/16/3 12/17/3
f 10/14/4 2/2/4 13/18/4 17/23/4
f 5/6/1 1/1/1 9/13/1 11/15/1
f 15/20/3 18/24/3 30/40/3 27/35/3
f 18/24/3 24/31/3 32/44/3 30/40/3
f 6/7/3 12/17/3 18/24/3 15/20/3
f 4/4/2 8/11/2 16/21/2 14/19/2
f 8/12/3 6/7/3 15/20/3 16/22/3
f 2/2/4 4/4/4 14/19/4 13/18/4
f 22/29/5 20/26/5 23/30/5 24/31/5
f 22/29/5 21/28/5 19/25/5 20/26/5
f 9/13/4 10/14/4 20/26/4 19/25/4
f 23/30/4 17/23/4 29/39/4 31/42/4
f 10/14/4 17/23/4 23/30/4 20/26/4
f 12/17/3 11/16/3 21/28/3 22/29/3
f 27/34/6 25/32/6 26/33/6 28/36/6
f 25/32/6 27/34/6 30/41/6 29/39/6
f 29/39/6 30/41/6 32/43/6 31/42/6
f 14/19/2 16/21/2 28/37/2 26/33/2
f 16/22/3 15/20/3 27/35/3 28/38/3
f 24/31/5 23/30/5 31/42/5 32/44/5
f 17/23/4 13/18/4 25/32/4 29/39/4
f 13/18/4 14/19/4 26/33/4 25/32/4
